<svg xmlns="http://www.w3.org/2000/svg" width="1100" height="620" viewBox="0 0 1100 620"><rect width="1100" height="620" fill="#ffffff"/><rect x="30" y="30" width="1040" height="560" rx="20" fill="#f5f8fa" stroke="#263238" stroke-width="3"/><text x="60" y="85" font-family="Arial" font-size="32" font-weight="700" fill="#1e323c">kubeharbor System Design</text><text x="60" y="135" font-family="Arial" font-size="26" fill="#1e5a82">Diagram 01 - Architecture Diagram</text><line x1="60" y1="165" x2="1040" y2="165" stroke="#607d8b" stroke-width="2"/><rect x="80" y="220" width="210" height="90" rx="14" fill="#fff3e0" stroke="#607d8b"/><text x="105" y="255" font-family="Arial" font-size="18" fill="#263238">Staging Host</text><text x="105" y="285" font-family="Arial" font-size="15" fill="#455a64">Download artifacts</text><rect x="360" y="220" width="210" height="90" rx="14" fill="#fff3e0" stroke="#607d8b"/><text x="385" y="255" font-family="Arial" font-size="18" fill="#263238">Transfer Boundary</text><text x="385" y="285" font-family="Arial" font-size="15" fill="#455a64">Tarball + SHA256</text><rect x="640" y="220" width="210" height="90" rx="14" fill="#e8f5e9" stroke="#607d8b"/><text x="665" y="255" font-family="Arial" font-size="18" fill="#263238">kubeharbor VM</text><text x="665" y="285" font-family="Arial" font-size="15" fill="#455a64">Harbor v2.15.1</text><rect x="640" y="390" width="210" height="90" rx="14" fill="#e3f2fd" stroke="#607d8b"/><text x="665" y="425" font-family="Arial" font-size="18" fill="#263238">/data Storage</text><text x="665" y="455" font-family="Arial" font-size="15" fill="#455a64">Registry + cache</text><rect x="360" y="390" width="210" height="90" rx="14" fill="#ffffff" stroke="#607d8b"/><text x="385" y="425" font-family="Arial" font-size="18" fill="#263238">Consumers</text><text x="385" y="455" font-family="Arial" font-size="15" fill="#455a64">RKE2 + platform bundles</text><path d="M290 265 H360" stroke="#607d8b" stroke-width="3" marker-end="url(#a)"/><path d="M570 265 H640" stroke="#607d8b" stroke-width="3" marker-end="url(#a)"/><path d="M745 310 V390" stroke="#607d8b" stroke-width="3" marker-end="url(#a)"/><path d="M640 435 H570" stroke="#607d8b" stroke-width="3" marker-end="url(#a)"/><defs><marker id="a" markerWidth="10" markerHeight="10" refX="8" refY="3" orient="auto"><path d="M0,0 L0,6 L9,3 z" fill="#607d8b"/></marker></defs><text x="60" y="550" font-family="Arial" font-size="16" fill="#455a64">Source: diagrams/mermaid-source/system-design-document-diagram-01.mmd</text></svg>